<?xml version="1.0"?>
<svg xmlns="http://www.w3.org/2000/svg" width="98" height="98" viewBox="0 0 98 98" fill="none">
<g clip-path="url(#clip0_1_84)">
<path d="M73.5 37.4668C72.3803 31.7926 69.3254 26.683 64.8569 23.011C60.3884 19.3389 54.7837 17.3322 49 17.3335C39.3667 17.3335 31 22.8002 26.8333 30.8002C21.9341 31.3296 17.4034 33.6509 14.1116 37.3179C10.8199 40.9849 8.99943 45.7391 9 50.6668C9 61.7002 17.9667 70.6668 29 70.6668H72.3333C81.5333 70.6668 89 63.2002 89 54.0002C89 45.2002 82.1667 38.0668 73.5 37.4668Z" fill="url(#paint0_linear_1_84)"/>
<path d="M42.9605 47.8667H40.4696C40.4241 47.5445 40.3312 47.2582 40.1909 47.008C40.0507 46.754 39.8706 46.5379 39.6507 46.3597C39.4308 46.1815 39.1768 46.045 38.8886 45.9502C38.6043 45.8554 38.2953 45.8081 37.9617 45.8081C37.3588 45.8081 36.8338 45.9578 36.3864 46.2573C35.939 46.553 35.5921 46.9853 35.3457 47.5539C35.0992 48.1188 34.976 48.8051 34.976 49.6126C34.976 50.4429 35.0992 51.1405 35.3457 51.7054C35.5959 52.2703 35.9447 52.6968 36.3921 52.985C36.8394 53.2731 37.357 53.4172 37.9446 53.4172C38.2744 53.4172 38.5796 53.3736 38.8602 53.2864C39.1445 53.1992 39.3967 53.0722 39.6166 52.9053C39.8365 52.7347 40.0184 52.5281 40.1625 52.2855C40.3104 52.0428 40.4127 51.7661 40.4696 51.4552L42.9605 51.4666C42.896 52.0011 42.7349 52.5167 42.4771 53.0134C42.2231 53.5063 41.88 53.948 41.4478 54.3385C41.0193 54.7252 40.5075 55.0323 39.9123 55.2597C39.3208 55.4834 38.6517 55.5953 37.9048 55.5953C36.866 55.5953 35.9371 55.3602 35.1182 54.8901C34.3031 54.42 33.6585 53.7394 33.1846 52.8485C32.7145 51.9575 32.4795 50.8789 32.4795 49.6126C32.4795 48.3425 32.7183 47.262 33.196 46.3711C33.6737 45.4801 34.322 44.8015 35.1409 44.3351C35.9599 43.865 36.8811 43.63 37.9048 43.63C38.5796 43.63 39.2052 43.7247 39.7815 43.9143C40.3615 44.1039 40.8753 44.3806 41.3226 44.7446C41.77 45.1048 42.134 45.5465 42.4145 46.0697C42.6989 46.5929 42.8809 47.1919 42.9605 47.8667ZM55.4291 49.6126C55.4291 50.8827 55.1883 51.9632 54.7068 52.8542C54.2291 53.7451 53.577 54.4257 52.7505 54.8958C51.9278 55.3621 51.0027 55.5953 49.9753 55.5953C48.9403 55.5953 48.0114 55.3602 47.1887 54.8901C46.366 54.42 45.7158 53.7394 45.2381 52.8485C44.7604 51.9575 44.5215 50.8789 44.5215 49.6126C44.5215 48.3425 44.7604 47.262 45.2381 46.3711C45.7158 45.4801 46.366 44.8015 47.1887 44.3351C48.0114 43.865 48.9403 43.63 49.9753 43.63C51.0027 43.63 51.9278 43.865 52.7505 44.3351C53.577 44.8015 54.2291 45.4801 54.7068 46.3711C55.1883 47.262 55.4291 48.3425 55.4291 49.6126ZM52.9325 49.6126C52.9325 48.7899 52.8093 48.0961 52.5629 47.5312C52.3202 46.9663 51.9771 46.5379 51.5335 46.246C51.0899 45.954 50.5705 45.8081 49.9753 45.8081C49.3801 45.8081 48.8607 45.954 48.4171 46.246C47.9735 46.5379 47.6285 46.9663 47.3821 47.5312C47.1394 48.0961 47.0181 48.7899 47.0181 49.6126C47.0181 50.4353 47.1394 51.1291 47.3821 51.694C47.6285 52.2589 47.9735 52.6874 48.4171 52.9793C48.8607 53.2712 49.3801 53.4172 49.9753 53.4172C50.5705 53.4172 51.0899 53.2712 51.5335 52.9793C51.9771 52.6874 52.3202 52.2589 52.5629 51.694C52.8093 51.1291 52.9325 50.4353 52.9325 49.6126ZM57.1849 55.436V53.6617L61.3307 49.823C61.6833 49.4818 61.979 49.1747 62.2179 48.9017C62.4605 48.6288 62.6444 48.3615 62.7695 48.0999C62.8946 47.8345 62.9572 47.5483 62.9572 47.2412C62.9572 46.8999 62.8794 46.6061 62.724 46.3597C62.5685 46.1095 62.3562 45.918 62.0871 45.7853C61.8179 45.6488 61.5127 45.5806 61.1715 45.5806C60.8151 45.5806 60.5042 45.6526 60.2388 45.7967C59.9734 45.9408 59.7687 46.1474 59.6246 46.4166C59.4805 46.6857 59.4085 47.0061 59.4085 47.3777H57.0712C57.0712 46.6156 57.2437 45.954 57.5887 45.3929C57.9337 44.8318 58.4171 44.3977 59.0389 44.0906C59.6606 43.7835 60.3772 43.63 61.1885 43.63C62.0226 43.63 62.7486 43.7778 63.3666 44.0735C63.9884 44.3655 64.4718 44.7711 64.8168 45.2905C65.1618 45.81 65.3343 46.4052 65.3343 47.0762C65.3343 47.516 65.2471 47.9501 65.0727 48.3786C64.9021 48.807 64.5969 49.2828 64.1571 49.806C63.7173 50.3254 63.0974 50.949 62.2975 51.677L60.5971 53.3432V53.4229H65.4878V55.436H57.1849Z" fill="white"/>
</g>
<defs>
<linearGradient id="paint0_linear_1_84" x1="27.9558" y1="26.0219" x2="91.1732" y2="31.2605" gradientUnits="userSpaceOnUse">
<stop stop-color="#116290"/>
<stop offset="1" stop-color="#3FA648"/>
</linearGradient>
<clipPath id="clip0_1_84">
<rect width="80" height="80" fill="white" transform="translate(9 4)"/>
</clipPath>
</defs>
</svg>
