<?xml version="1.0"?>
<svg xmlns="http://www.w3.org/2000/svg" width="72" height="44" viewBox="0 0 72 44" fill="none">
<path fill-rule="evenodd" clip-rule="evenodd" d="M4.88005 0.620117C2.71605 0.620117 0.960358 2.41571 0.960358 4.62889V31.354C0.960358 33.5672 2.71605 35.3628 4.88005 35.3628H7.3744C7.3744 39.7892 10.8858 43.3804 15.2138 43.3804C19.5418 43.3804 23.0532 39.7892 23.0532 35.3628H50.1347C50.1347 39.7892 53.646 43.3804 57.974 43.3804C62.302 43.3804 65.8134 39.7892 65.8134 35.3628H68.4265C69.8719 35.3628 71.0397 34.1685 71.0397 32.6903C71.0397 31.2121 69.8719 30.0178 68.4265 30.0178V20.4385C68.4265 19.0187 67.8794 17.6574 66.8995 16.6552L60.5872 10.1994C59.6072 9.19722 58.2762 8.63766 56.888 8.63766H52.7478V4.62889C52.7478 2.41571 50.9921 0.620117 48.8281 0.620117H4.88005ZM63.2003 22.0002H52.7478V13.9827H56.888L63.2003 20.4385V22.0002ZM17.9854 38.1975C17.2503 38.9492 16.2533 39.3716 15.2138 39.3716C14.1742 39.3716 13.1772 38.9492 12.4421 38.1975C11.7071 37.4457 11.2941 36.426 11.2941 35.3628C11.2941 34.2996 11.7071 33.28 12.4421 32.5282C13.1772 31.7764 14.1742 31.354 15.2138 31.354C16.2533 31.354 17.2503 31.7764 17.9854 32.5282C18.7205 33.28 19.1335 34.2996 19.1335 35.3628C19.1335 36.426 18.7205 37.4457 17.9854 38.1975ZM60.7457 32.5282C61.4808 33.28 61.8937 34.2996 61.8937 35.3628C61.8937 36.426 61.4808 37.4457 60.7457 38.1975C60.0106 38.9492 59.0136 39.3716 57.974 39.3716C56.9345 39.3716 55.9375 38.9492 55.2024 38.1975C54.4673 37.4457 54.0543 36.426 54.0543 35.3628C54.0543 34.2996 54.4673 33.28 55.2024 32.5282C55.9375 31.7764 56.9345 31.354 57.974 31.354C59.0136 31.354 60.0106 31.7764 60.7457 32.5282Z" fill="url(#paint0_linear_1_98)"/>
<defs>
<linearGradient id="paint0_linear_1_98" x1="17.5654" y1="7.58611" x2="72.8703" y2="12.5934" gradientUnits="userSpaceOnUse">
<stop stop-color="#116290"/>
<stop offset="1" stop-color="#3FA648"/>
</linearGradient>
</defs>
</svg>
